<?xml version="1.0" encoding="iso-8859-1"?>
<!-- Uploaded to: SVG Repo, www.svgrepo.com, Generator: SVG Repo Mixer Tools -->
<svg fill="#000000" height="800px" width="800px" version="1.1" id="Layer_1" xmlns="http://www.w3.org/2000/svg" xmlns:xlink="http://www.w3.org/1999/xlink" 
	 viewBox="0 0 512 512" xml:space="preserve">
<g>
	<g>
		<g>
			<path d="M315.733,443.733H196.267c-4.71,0-8.533,3.823-8.533,8.533c0,4.71,3.823,8.533,8.533,8.533h119.467
				c4.71,0,8.533-3.823,8.533-8.533C324.267,447.556,320.444,443.733,315.733,443.733z"/>
			<path d="M315.733,409.6H196.267c-4.71,0-8.533,3.823-8.533,8.533s3.823,8.533,8.533,8.533h119.467
				c4.71,0,8.533-3.823,8.533-8.533S320.444,409.6,315.733,409.6z"/>
			<path d="M347.802,179.465c-6.007-53.666-25.472-112.222-85.555-176.751c-1.579-1.69-3.78-2.671-6.093-2.714
				c-2.483,0-4.548,0.862-6.187,2.5c-59.844,59.844-79.266,119.825-85.376,176.674c-28.245,18.825-45.124,50.005-45.124,83.917
				v151.484c0,53.717,43.708,97.425,97.425,97.425h78.217c53.717,0,97.425-43.708,97.425-97.425V263.091
				C392.533,229.342,375.799,198.315,347.802,179.465z M179.2,275.541c15.565-7.031,33.579-11.008,52.531-11.008h40.201
				c22.409,0,43.563,5.555,60.868,15.215v8.627c0,4.506-0.512,8.875-1.434,13.099c-15.019-12.45-36.42-19.874-59.435-19.874h-40.201
				c-19.507,0-37.734,5.376-51.985,14.541c-0.324-2.551-0.546-5.129-0.546-7.765V275.541z M375.467,414.575
				c0,44.305-36.053,80.358-80.358,80.358h-78.217c-44.305,0-80.358-36.053-80.358-80.358V263.091c0-23.04,9.344-44.604,25.6-60.262
				v15.838c-0.35,14.319-0.239,28.382-0.119,42.121c0.06,6.639,0.119,13.201,0.119,19.669v4.651v3.268
				c0,7.014,1.007,13.781,2.739,20.25c0.572,2.142,1.229,4.233,1.971,6.298c0.051,0.145,0.111,0.282,0.154,0.418
				c0.717,1.937,1.485,3.84,2.338,5.7c0.154,0.333,0.324,0.666,0.486,0.998c0.802,1.698,1.638,3.379,2.569,5.001
				c0.265,0.478,0.563,0.93,0.845,1.391c13.713,23.014,38.776,38.502,67.456,38.502h30.618c42.249,0,76.715-33.545,78.396-75.383
				c0.043-1.058,0.162-2.099,0.162-3.174v-7.919c0-7.979,0.119-15.991,0.23-24.073c0.23-15.983,0.469-32.427-0.23-49.374v-4.181
				c16.256,15.659,25.6,37.222,25.6,60.262V414.575z"/>
		</g>
	</g>
</g>
</svg>