<?xml version="1.0" encoding="utf-8"?><!-- Uploaded to: SVG Repo, www.svgrepo.com, Generator: SVG Repo Mixer Tools -->
<svg version="1.1" id="Uploaded to svgrepo.com" xmlns="http://www.w3.org/2000/svg" xmlns:xlink="http://www.w3.org/1999/xlink" 
	 width="800px" height="800px" viewBox="0 0 32 32" xml:space="preserve">
<style type="text/css">
	.stone_een{fill:#0B1719;}
	.st0{fill:#0B1719;}
</style>
<path class="stone_een" d="M29.26,23.84l-4.3-2.867C26.245,18.957,27,16.569,27,14c0-7.18-5.82-13-13-13S1,6.82,1,14s5.82,13,13,13
	c2.569,0,4.956-0.755,6.973-2.041l2.867,4.3c0.725,1.087,1.945,1.74,3.252,1.74C29.25,31,31,29.25,31,27.092
	C31,25.785,30.347,24.565,29.26,23.84z M14,24C8.477,24,4,19.523,4,14C4,8.477,8.477,4,14,4c5.523,0,10,4.477,10,10
	C24,19.523,19.523,24,14,24z M27,28c-0.552,0-1-0.448-1-1c0-0.552,0.448-1,1-1s1,0.448,1,1C28,27.552,27.552,28,27,28z M23,14
	c0,4.963-4.037,9-9,9c-4.963,0-9-4.037-9-9c0-4.963,4.037-9,9-9C18.963,5,23,9.037,23,14z"/>
</svg>